<svg aria-hidden="true" style="position: absolute; width: 0; height: 0; overflow: hidden;" version="1.1" xmlns="http://www.w3.org/2000/svg" xmlns:xlink="http://www.w3.org/1999/xlink">
<defs>
<symbol id="icon-instagramoring" viewBox="0 0 28 28">
<path fill="#afb1b8" style="fill: var(--color1, #afb1b8)" d="M27.972 8.232c-0.064-1.488-0.305-2.51-0.65-3.396-0.371-0.973-0.922-1.801-1.619-2.482l-0.001-0.001c-0.682-0.693-1.509-1.242-2.431-1.598l-0.047-0.016c-0.892-0.344-1.908-0.584-3.396-0.65-1.498-0.071-1.974-0.088-5.776-0.088-3.801 0-4.277 0.017-5.771 0.083-1.487 0.064-2.51 0.305-3.395 0.65-0.973 0.371-1.802 0.922-2.484 1.619l-0.001 0.001c-0.693 0.682-1.241 1.509-1.597 2.431l-0.016 0.047c-0.346 0.892-0.585 1.908-0.651 3.396-0.071 1.498-0.088 1.974-0.088 5.776 0 3.801 0.017 4.277 0.083 5.771 0.066 1.488 0.307 2.51 0.651 3.396 0.373 0.972 0.923 1.8 1.617 2.483l0.001 0.001c0.7 0.711 1.548 1.263 2.478 1.613 0.892 0.346 1.91 0.587 3.396 0.651 1.494 0.066 1.97 0.083 5.771 0.083 3.802 0 4.278-0.017 5.771-0.083 1.488-0.064 2.51-0.305 3.396-0.65 1.888-0.744 3.354-2.21 4.081-4.049l0.017-0.049c0.344-0.892 0.585-1.91 0.651-3.396 0.066-1.494 0.081-1.97 0.081-5.771s-0.006-4.277-0.070-5.771zM25.452 19.664c-0.062 1.368-0.291 2.106-0.482 2.598-0.483 1.225-1.435 2.175-2.629 2.646l-0.032 0.011c-0.49 0.192-1.235 0.421-2.597 0.482-1.477 0.066-1.919 0.083-5.656 0.083-3.735 0-4.185-0.017-5.656-0.083-1.368-0.060-2.106-0.29-2.598-0.482-0.63-0.235-1.167-0.591-1.606-1.043l-0.001-0.001c-0.452-0.441-0.808-0.977-1.036-1.577l-0.010-0.030c-0.19-0.493-0.42-1.236-0.48-2.598-0.066-1.477-0.083-1.921-0.083-5.656 0-3.737 0.017-4.186 0.083-5.656 0.060-1.368 0.29-2.106 0.48-2.598 0.235-0.632 0.593-1.17 1.049-1.607l0.001-0.001c0.441-0.452 0.979-0.808 1.58-1.034l0.030-0.010c0.49-0.192 1.235-0.42 2.597-0.482 1.477-0.064 1.921-0.081 5.656-0.081 3.741 0 4.185 0.017 5.656 0.081 1.368 0.060 2.106 0.29 2.598 0.482 0.606 0.224 1.159 0.58 1.607 1.044 0.465 0.455 0.82 1.001 1.046 1.61 0.19 0.49 0.42 1.235 0.48 2.597 0.066 1.477 0.083 1.919 0.083 5.656 0 3.735-0.017 4.172-0.083 5.65z"></path>
<path fill="#afb1b8" style="fill: var(--color1, #afb1b8)" d="M14.052 6.81c-3.972 0.002-7.191 3.221-7.192 7.193v0c0.080 3.912 3.27 7.053 7.193 7.053s7.114-3.141 7.193-7.045l0-0.007c-0.001-3.972-3.221-7.192-7.193-7.193h-0zM14.052 18.668c-2.577-0-4.665-2.089-4.665-4.666s2.089-4.666 4.666-4.666c0 0 0 0 0.001 0h-0c2.577 0 4.667 2.089 4.667 4.667s-2.089 4.667-4.667 4.667v0zM23.209 6.525c0 0.928-0.752 1.68-1.68 1.68s-1.68-0.752-1.68-1.68v0c0-0.928 0.752-1.68 1.68-1.68s1.68 0.752 1.68 1.68v0z"></path>
</symbol>
<symbol id="icon-linkedinoring" viewBox="0 0 28 28">
<path fill="#afb1b8" style="fill: var(--color1, #afb1b8)" d="M27.993 28h0.007v-10.27c0-5.023-1.082-8.893-6.954-8.893-2.824 0-4.718 1.548-5.492 3.018h-0.081v-2.549h-5.569v18.693h5.799v-9.255c0-2.437 0.462-4.795 3.48-4.795 2.974 0 3.017 2.782 3.017 4.95v9.101h5.793zM0.462 9.306h5.806v18.694h-5.806v-18.694zM3.363 0c-1.857 0-3.363 1.506-3.363 3.363v0c0 1.855 1.506 3.394 3.363 3.394 1.855 0 3.361-1.537 3.361-3.394s-1.505-3.361-3.361-3.363h-0z"></path>
</symbol>
<symbol id="icon-twitteroring" viewBox="0 0 28 28">
<path fill="#afb1b8" style="fill: var(--color1, #afb1b8)" d="M28 5.319c-0.963 0.432-2.079 0.75-3.249 0.9l-0.060 0.006c1.19-0.714 2.084-1.818 2.514-3.132l0.011-0.040c-1.048 0.632-2.267 1.114-3.566 1.376l-0.074 0.012c-1.050-1.119-2.538-1.816-4.189-1.816-3.169 0-5.739 2.569-5.739 5.739 0 0.001 0 0.002 0 0.003v-0c0 0.455 0.038 0.893 0.133 1.309-4.773-0.232-8.995-2.52-11.831-6.003-0.494 0.831-0.786 1.83-0.79 2.898v0.001c0 1.988 1.025 3.751 2.549 4.77-0.955-0.026-1.844-0.285-2.62-0.72l0.029 0.015v0.063c0.003 2.769 1.957 5.081 4.561 5.635l0.038 0.007c-0.436 0.119-0.937 0.188-1.455 0.188-0.018 0-0.035-0-0.053-0l0.003 0c-0.367 0-0.738-0.021-1.086-0.098 0.743 2.274 2.853 3.945 5.363 3.998-1.938 1.528-4.415 2.45-7.107 2.45-0.004 0-0.007 0-0.011 0h0.001c-0.016 0-0.035 0-0.054 0-0.465 0-0.923-0.030-1.372-0.087l0.053 0.006c2.473 1.615 5.501 2.576 8.753 2.576 0.018 0 0.037-0 0.055-0h-0.003c10.563 0 16.338-8.75 16.338-16.335 0-0.252-0.008-0.498-0.021-0.742 1.136-0.819 2.092-1.806 2.851-2.935l0.026-0.041z"></path>
</symbol>
<symbol id="icon-facebookoring" viewBox="0 0 28 28">
<path fill="#afb1b8" style="fill: var(--color1, #afb1b8)" d="M18.662 4.648h2.558v-4.452c-1.078-0.125-2.328-0.196-3.594-0.196-0.046 0-0.091 0-0.137 0l0.007-0c-3.686 0-6.212 2.318-6.212 6.58v3.92h-4.066v4.977h4.066v12.523h4.987v-12.522h3.902l0.619-4.977h-4.522v-3.431c0-1.438 0.388-2.422 2.393-2.422z"></path>
</symbol>
</defs>
</svg>
